<?xml version="1.0" encoding="UTF-8"?>
<svg version="1.1" xmlns="http://www.w3.org/2000/svg" width="171" height="219">
<path d="M0 0 C1.17989502 0.00902344 2.35979004 0.01804688 3.57543945 0.02734375 C27.41949498 0.49862836 47.91900207 10.74034891 64.41015625 27.8828125 C81.40921138 46.95207846 86.65797388 69.67346972 85.85791016 94.54638672 C84.87985463 111.13970133 77.75749141 128.08471988 66.6875 140.4375 C66.04554688 141.2315625 65.40359375 142.025625 64.7421875 142.84375 C51.23083918 158.99753914 31.49339755 168.95321373 10.6875 171.4375 C-13.67454674 173.37295209 -36.2259274 167.55200557 -55.3359375 151.97265625 C-71.1932394 138.31186398 -82.70045225 119.45594034 -85.3125 98.4375 C-86.86355822 70.40535404 -81.66087843 48.07309194 -62.85546875 26.63671875 C-46.29148397 9.10266166 -24.11000272 -0.22277343 0 0 Z " fill="#0F52A0" transform="translate(85.3125,-0.4375)"/>
<path d="M0 0 C14.3558937 12.57767121 21.72978435 25.3854867 23.625 44.421875 C24.05009398 60.34357671 18.68440754 75.4830191 8.0234375 87.328125 C-2.94202346 98.88001445 -17.68102027 105.76407421 -33.63818359 106.18310547 C-50.30514792 106.33823499 -64.292368 100.77120346 -76.44140625 89.23828125 C-82.9766174 82.52432928 -87.3628601 75.64546686 -90.7265625 66.890625 C-90.98840332 66.23046387 -91.25024414 65.57030273 -91.52001953 64.89013672 C-93.63570652 59.17264 -94.20346515 54.08761758 -94.1015625 48.015625 C-94.09141113 47.13648438 -94.08125977 46.25734375 -94.07080078 45.3515625 C-93.70412828 29.97974179 -87.50601655 15.94182999 -76.7265625 4.890625 C-55.38932954 -13.79064469 -23.44780517 -18.1401358 0 0 Z " fill="#FDEEEF" transform="translate(120.7265625,38.109375)"/>
<path d="M0 0 C14.3558937 12.57767121 21.72978435 25.3854867 23.625 44.421875 C24.05009398 60.34357671 18.68440754 75.4830191 8.0234375 87.328125 C-2.94202346 98.88001445 -17.68102027 105.76407421 -33.63818359 106.18310547 C-50.30514792 106.33823499 -64.292368 100.77120346 -76.44140625 89.23828125 C-82.9766174 82.52432928 -87.3628601 75.64546686 -90.7265625 66.890625 C-90.98840332 66.23046387 -91.25024414 65.57030273 -91.52001953 64.89013672 C-93.63570652 59.17264 -94.20346515 54.08761758 -94.1015625 48.015625 C-94.09141113 47.13648438 -94.08125977 46.25734375 -94.07080078 45.3515625 C-93.70412828 29.97974179 -87.50601655 15.94182999 -76.7265625 4.890625 C-55.38932954 -13.79064469 -23.44780517 -18.1401358 0 0 Z M-56.4375 1.94921875 C-59.91754343 7.19037507 -61.25321081 11.48958431 -61.1640625 17.765625 C-61.15922852 18.82136719 -61.15922852 18.82136719 -61.15429688 19.8984375 C-61.00178737 25.57810169 -59.8450037 29.2129632 -56.7265625 33.890625 C-58.0053125 33.7875 -59.2840625 33.684375 -60.6015625 33.578125 C-67.65738492 33.578125 -73.19344209 36.8078371 -78.5390625 41.203125 C-83.73301886 47.58427138 -87.14565825 53.10475568 -87.00390625 61.546875 C-86.08053638 69.35000064 -82.80747287 76.82319969 -76.7265625 81.890625 C-69.30023246 87.27539937 -61.70659348 88.15730368 -52.7265625 86.890625 C-44.19828001 84.28858182 -39.52306071 79.08537231 -34.7265625 71.890625 C-34.2109375 72.756875 -33.6953125 73.623125 -33.1640625 74.515625 C-29.48902507 80.00870215 -24.00595794 84.79749319 -17.7265625 86.890625 C-9.53421704 87.7801424 -1.80953477 87.39906981 5.2734375 82.890625 C11.6954023 77.31250199 15.58738878 71.51154693 16.6171875 63.07421875 C17.05025333 54.59695512 15.0978855 48.21249588 9.44140625 41.8203125 C3.94043871 36.63399597 -1.61192598 33.7567492 -9.2265625 33.703125 C-10.9590625 33.7959375 -10.9590625 33.7959375 -12.7265625 33.890625 C-11.71744792 32.19791667 -10.70833333 30.50520833 -9.69921875 28.8125 C-6.88585002 23.25355456 -6.74931067 16.46406994 -8.375 10.51953125 C-11.26650864 3.38961466 -15.85482148 -2.92115242 -22.7265625 -6.609375 C-35.59549077 -11.52336645 -47.86730206 -8.45029044 -56.4375 1.94921875 Z " fill="#EC2027" transform="translate(120.7265625,38.109375)"/>
<path d="M0 0 C6.48217977 -0.16005382 11.90219785 -0.25353558 18 2 C19 3 19 3 19.0625 5.3125 C19.041875 6.199375 19.02125 7.08625 19 8 C19 9.32 19 10.64 19 12 C21.01136276 9.44008376 22.62845496 6.95409701 24 4 C30.71554696 3.27004924 35.25601834 5.64384213 41 9 C42 10 42 10 42.09765625 11.84765625 C42.06510417 13.8984375 42.03255208 15.94921875 42 18 C43.65 16.35 45.3 14.7 47 13 C51.18789323 14.41360295 54.05235564 16.41371203 57.375 19.3125 C58.26960937 20.07175781 59.16421875 20.83101562 60.0859375 21.61328125 C62 24 62 24 61.91796875 26.5859375 C60.72007522 29.73614261 58.96453269 32.27500304 57 35 C57.97582031 34.95359375 58.95164063 34.9071875 59.95703125 34.859375 C61.22933594 34.82328125 62.50164062 34.7871875 63.8125 34.75 C65.07707031 34.70359375 66.34164062 34.6571875 67.64453125 34.609375 C71 35 71 35 73.01171875 36.765625 C74 39 74 39 73.8984375 40.859375 C72.66985506 43.7866062 71.20237482 46.49458576 69.625 49.25 C68.71621094 50.86648437 68.71621094 50.86648437 67.7890625 52.515625 C66.90347656 53.74539062 66.90347656 53.74539062 66 55 C65.01 55 64.02 55 63 55 C63.54140625 56.38445313 63.54140625 56.38445313 64.09375 57.796875 C66.99021246 65.72886892 68.47570257 72.96608004 68.4375 81.4375 C68.43492187 82.25250977 68.43234375 83.06751953 68.4296875 83.90722656 C68.01769913 100.79188321 61.02597938 116.26377962 49.6171875 128.5703125 C36.11114519 141.38151019 19.83781706 147.81639728 1.36889648 147.52148438 C-17.58841542 146.71751163 -33.14319726 138.64973331 -46 125 C-58.76325161 109.75435449 -62.3376912 92.06231105 -61.26757812 72.64111328 C-60.34043195 63.48977449 -56.39830544 54.98210987 -52 47 C-52.99 47.66 -53.98 48.32 -55 49 C-59.13532448 48.66470342 -62.3779631 46.93736858 -66 45 C-66.99 47.475 -66.99 47.475 -68 50 C-68.99 49.34 -69.98 48.68 -71 48 C-69.45454854 42.52067211 -66.84456788 37.88570819 -64 33 C-63.01 33 -62.02 33 -61 33 C-60.34 31.35 -59.68 29.7 -59 28 C-55.19654123 28 -54.22298985 29.13786331 -51.3125 31.5 C-50.50425781 32.1496875 -49.69601563 32.799375 -48.86328125 33.46875 C-48.24839844 33.9740625 -47.63351563 34.479375 -47 35 C-47.33 36.98 -47.66 38.96 -48 41 C-47.52691406 40.57589844 -47.05382812 40.15179688 -46.56640625 39.71484375 C-44.3950335 37.78896733 -42.20182476 35.89097891 -40 34 C-38.98873047 33.12021484 -38.98873047 33.12021484 -37.95703125 32.22265625 C-25.49800699 21.91415775 -12.41860028 17.83199331 3.5 17.375 C4.60859375 17.33632813 5.7171875 17.29765625 6.859375 17.2578125 C9.57275797 17.16424757 12.28614661 17.07850517 15 17 C14.34 16.67 13.68 16.34 13 16 C13 14.68 13 13.36 13 12 C10.36 12 7.72 12 5 12 C5 12.99 5 13.98 5 15 C3.35 15 1.7 15 0 15 C0 10.05 0 5.1 0 0 Z M-41.4453125 43.79296875 C-53.04710652 58.59195683 -57.13101136 74.3984951 -55 93 C-53.77411914 98.66940027 -51.52856121 103.80304932 -49 109 C-48.54367188 109.94359375 -48.08734375 110.8871875 -47.6171875 111.859375 C-40.09215414 125.70543639 -27.22467209 134.30296098 -12.6875 139.5 C3.26732568 143.87784851 19.10703348 140.7293393 33.53515625 133.140625 C43.35076852 127.3560819 50.66333143 119.01559647 56 109 C56.61294922 107.85917969 56.61294922 107.85917969 57.23828125 106.6953125 C64.55502322 91.74255255 63.19309448 74.39225244 58 59 C54.59697813 51.18029018 48.92500802 45.02969014 43 39 C42.15308594 38.13375 42.15308594 38.13375 41.2890625 37.25 C30.03334355 26.70805835 14.68437744 23.34912635 -0.30078125 23.71875 C-16.30475884 24.93552549 -30.81094027 31.64668098 -41.4453125 43.79296875 Z " fill="#EAF0F7" transform="translate(82,3)"/>
<path d="M0 0 C6.22014019 3.46104979 10.2166756 8.11274374 12.6875 14.875 C13.66814823 21.87108798 12.61984795 27.96004765 8.6875 33.875 C4.17271688 38.81392767 -0.32700659 42.28873223 -7.07421875 43.28125 C-14.92169537 43.53270452 -20.31670623 42.08013965 -26.3125 36.875 C-31.66329087 30.43925615 -33.01809614 24.09790888 -32.3125 15.875 C-31.006015 8.79385132 -26.99599199 4.99853162 -21.3125 0.875 C-14.50095387 -3.71538978 -7.28148986 -3.36402661 0 0 Z " fill="#ED1F26" transform="translate(120.3125,78.125)"/>
<path d="M0 0 C5.28045174 2.91880088 9.43253493 7.07200229 11.3828125 12.88671875 C12.59643322 19.87149333 12.74809538 27.01653978 9.0859375 33.25 C5.50338869 37.94292944 1.37899343 41.16807906 -4.25 43 C-11.59357361 43.87109977 -18.23528132 43.59159328 -24.25 39 C-28.962127 34.56134466 -31.83533196 30.30139559 -32.65625 23.765625 C-32.84610025 16.64624046 -32.5861365 11.55508979 -28.10546875 5.83984375 C-20.25642301 -1.94310476 -10.29280803 -4.64032798 0 0 Z " fill="#ED1F26" transform="translate(71.25,78)"/>
<path d="M0 0 C6.54745906 2.90142303 11.24449931 8.29426408 14.1171875 14.7578125 C15.15144422 22.25617372 14.47287949 28.34161298 10.078125 34.62890625 C6.14365552 39.35237362 1.66493742 43.02624077 -4.5546875 43.75390625 C-12.18512159 43.89551911 -17.64289248 43.70578918 -23.3828125 38.3828125 C-28.55778942 33.18122902 -30.68387694 28.98428159 -30.8203125 21.6328125 C-30.70416404 14.17608159 -29.0774115 10.0585133 -23.85546875 4.86328125 C-16.85260537 -1.31990855 -9.0529731 -2.34486844 0 0 Z " fill="#ED1E25" transform="translate(94.3828125,34.6171875)"/>
<path d="M0 0 C2.15894214 1.67039616 4.22703009 3.39924072 6.28515625 5.19140625 C7.10886719 5.8153125 7.93257813 6.43921875 8.78125 7.08203125 C15.80593974 12.9998666 20.80872266 21.76443296 24.28515625 30.19140625 C24.54482178 30.81080078 24.8044873 31.43019531 25.07202148 32.06835938 C27.52888564 38.52665232 27.78802982 44.5792572 27.72265625 51.44140625 C27.71508301 52.5495166 27.70750977 53.65762695 27.69970703 54.79931641 C27.53572038 62.94239078 26.73183366 69.72540597 23.28515625 77.19140625 C22.88425781 78.11308594 22.48335938 79.03476563 22.0703125 79.984375 C13.97520486 96.62040781 -0.76077356 107.13172431 -17.78515625 113.3046875 C-30.07967613 116.66744813 -47.36850725 115.91809495 -58.71484375 110.19140625 C-59.6378125 109.76730469 -60.56078125 109.34320313 -61.51171875 108.90625 C-68.58863821 105.39711452 -74.14696708 100.74974889 -79.71484375 95.19140625 C-80.36453125 94.55332031 -81.01421875 93.91523437 -81.68359375 93.2578125 C-92.32421406 82.03382484 -97.09409801 66.22218726 -96.86328125 50.98828125 C-96.08491669 36.32225423 -91.64132594 24.79374258 -82.71484375 13.19140625 C-81.63203125 11.67546875 -81.63203125 11.67546875 -80.52734375 10.12890625 C-60.88740766 -12.5375118 -24.60718794 -16.39298995 0 0 Z M-79.16015625 13.984375 C-90.76195027 28.78336308 -94.84585511 44.58990135 -92.71484375 63.19140625 C-91.48896289 68.86080652 -89.24340496 73.99445557 -86.71484375 79.19140625 C-86.25851563 80.135 -85.8021875 81.07859375 -85.33203125 82.05078125 C-77.80699789 95.89684264 -64.93951584 104.49436723 -50.40234375 109.69140625 C-34.44751807 114.06925476 -18.60781027 110.92074555 -4.1796875 103.33203125 C5.63592477 97.54748815 12.94848768 89.20700272 18.28515625 79.19140625 C18.89810547 78.05058594 18.89810547 78.05058594 19.5234375 76.88671875 C26.84017947 61.9339588 25.47825073 44.58365869 20.28515625 29.19140625 C16.88213438 21.37169643 11.21016427 15.22109639 5.28515625 9.19140625 C4.43824219 8.32515625 4.43824219 8.32515625 3.57421875 7.44140625 C-7.6815002 -3.1005354 -23.03046631 -6.4594674 -38.015625 -6.08984375 C-54.01960259 -4.87306826 -68.52578402 1.83808723 -79.16015625 13.984375 Z " fill="#6A92C3" transform="translate(119.71484375,32.80859375)"/>
<path d="M0 0 C6.48217977 -0.16005382 11.90219785 -0.25353558 18 2 C19 3 19 3 19.0625 5.3125 C19.041875 6.199375 19.02125 7.08625 19 8 C19 9.32 19 10.64 19 12 C21.01136276 9.44008376 22.62845496 6.95409701 24 4 C30.71554696 3.27004924 35.25601834 5.64384213 41 9 C42 10 42 10 42.09765625 11.84765625 C42.06510417 13.8984375 42.03255208 15.94921875 42 18 C44.475 15.525 44.475 15.525 47 13 C51.18789323 14.41360295 54.05235564 16.41371203 57.375 19.3125 C58.26960938 20.07175781 59.16421875 20.83101562 60.0859375 21.61328125 C62 24 62 24 61.91796875 26.5859375 C60.72007522 29.73614261 58.96453269 32.27500304 57 35 C57.97582031 34.95359375 58.95164063 34.9071875 59.95703125 34.859375 C61.22933594 34.82328125 62.50164062 34.7871875 63.8125 34.75 C65.70935547 34.68039063 65.70935547 34.68039063 67.64453125 34.609375 C71 35 71 35 73.01171875 36.765625 C74 39 74 39 73.89453125 40.86328125 C72.68014982 43.76400895 71.24263841 46.45352005 69.6875 49.1875 C69.09324219 50.25355469 68.49898438 51.31960937 67.88671875 52.41796875 C66 55 66 55 63.76953125 55.86328125 C63.18558594 55.90839844 62.60164063 55.95351563 62 56 C61.69449219 55.34515625 61.38898438 54.6903125 61.07421875 54.015625 C52.88815532 37.6896168 40.06735963 27.21663044 23.0078125 20.91015625 C20.01112801 20.00336731 17.09697215 19.43912292 14 19 C14.33 18.34 14.66 17.68 15 17 C14.34 16.67 13.68 16.34 13 16 C13 14.68 13 13.36 13 12 C10.36 12 7.72 12 5 12 C5 12.99 5 13.98 5 15 C3.35 15 1.7 15 0 15 C0 10.05 0 5.1 0 0 Z " fill="#2361A8" transform="translate(82,3)"/>
<path d="M0 0 C2.66694948 -0.05455124 5.33275498 -0.09393392 8 -0.125 C8.74378906 -0.14175781 9.48757812 -0.15851562 10.25390625 -0.17578125 C26.84908949 -0.32008719 41.40205167 7.71499753 53.25 18.8125 C64.7417985 30.84481254 71.40131159 46.38148997 71.25 62.9375 C71.26160156 64.20110352 71.26160156 64.20110352 71.2734375 65.49023438 C71.22093672 82.53986134 64.12147228 98.16077253 52.6171875 110.5703125 C43.02408657 119.66987769 30.189686 127.70584047 16.6171875 128.09765625 C15.75351563 128.06542969 14.88984375 128.03320312 14 128 C15 126 15 126 18.2109375 124.921875 C19.59815837 124.52841853 20.98623899 124.1379853 22.375 123.75 C38.85350518 118.82656649 50.87489813 109.73429589 60 95 C67.75280627 80.5399313 70.02682112 62.73173529 66.125 46.640625 C63.5748166 39.09073994 59.63696081 32.45047944 55 26 C54.278125 24.96875 53.55625 23.9375 52.8125 22.875 C39.33437971 7.73399473 21.03452496 3.3544602 1.67578125 2.1484375 C0.79277344 2.09945313 -0.09023437 2.05046875 -1 2 C-0.67 1.34 -0.34 0.68 0 0 Z " fill="#E9EFF6" transform="translate(79,21)"/>
<path d="M0 0 C0.54269531 0.40992187 1.08539063 0.81984375 1.64453125 1.2421875 C2.35996094 1.78101562 3.07539063 2.31984375 3.8125 2.875 C4.52019531 3.40867188 5.22789063 3.94234375 5.95703125 4.4921875 C7.60456297 5.70814781 9.29624211 6.86416141 11 8 C11.56063491 12.16471651 11.20801432 14.55068908 9.4375 18.375 C7 21 7 21 3.75 22.125 C-0.97893922 21.96736869 -4.01124625 20.41397305 -8 18 C-8.99 20.475 -8.99 20.475 -10 23 C-10.99 22.34 -11.98 21.68 -13 21 C-11.45454854 15.52067211 -8.84456788 10.88570819 -6 6 C-5.01 6 -4.02 6 -3 6 C-2.690625 5.195625 -2.38125 4.39125 -2.0625 3.5625 C-1 1 -1 1 0 0 Z " fill="#1556A3" transform="translate(24,30)"/>
<path d="M0 0 C4.18789323 1.41360295 7.05235564 3.41371203 10.375 6.3125 C11.26960938 7.07175781 12.16421875 7.83101562 13.0859375 8.61328125 C15 11 15 11 14.92578125 13.58203125 C13.47756326 17.36450776 11.99513992 19.20453608 9 22 C3.73820968 21.90486332 1.01568764 19.80626613 -2.875 16.4375 C-3.84179688 15.61121094 -4.80859375 14.78492188 -5.8046875 13.93359375 C-6.52914062 13.29550781 -7.25359375 12.65742188 -8 12 C-6.59023295 8.96147295 -4.91129772 6.4060405 -2.875 3.75 C-2.06675781 2.69039062 -2.06675781 2.69039062 -1.2421875 1.609375 C-0.83226562 1.07828125 -0.42234375 0.5471875 0 0 Z " fill="#F2F5F9" transform="translate(129,16)"/>
<path d="M0 0 C6.71554696 -0.72995076 11.25601834 1.64384213 17 5 C18 6 18 6 18.3125 8.6875 C17.9129862 12.92234624 16.89106406 14.88654639 14 18 C8.3043245 19.22847903 4.58783934 17.02768069 -0.1796875 14.19140625 C-2 13 -2 13 -3 12 C-3.45226612 7.13813926 -2.40385693 4.20674962 0 0 Z " fill="#F6F8FB" transform="translate(106,7)"/>
<path d="M0 0 C2.64 0 5.28 0 8 0 C8.99 2.31 9.98 4.62 11 7 C11.99 4.69 12.98 2.38 14 0 C16.97 0 19.94 0 23 0 C23 5.28 23 10.56 23 16 C21.35 16 19.7 16 18 16 C17.67 13.36 17.34 10.72 17 8 C16.01 10.64 15.02 13.28 14 16 C12.35 16 10.7 16 9 16 C8.01 13.36 7.02 10.72 6 8 C5.67 10.64 5.34 13.28 5 16 C3.35 16 1.7 16 0 16 C0 10.72 0 5.44 0 0 Z " fill="#EEF3F8" transform="translate(74,152)"/>
<path d="M0 0 C0.33 0.99 0.66 1.98 1 3 C1.86625 3.804375 2.7325 4.60875 3.625 5.4375 C4.40875 6.283125 5.1925 7.12875 6 8 C5.81446915 10.59227824 5.25136335 11.73059005 3.4765625 13.6328125 C2.56003906 14.37144531 2.56003906 14.37144531 1.625 15.125 C1.01914062 15.62257813 0.41328125 16.12015625 -0.2109375 16.6328125 C-4.52740259 19.9314212 -4.52740259 19.9314212 -7.4765625 20.359375 C-10 20 -10 20 -11.8359375 18.390625 C-12.59777344 17.33101562 -12.59777344 17.33101562 -13.375 16.25 C-13.89835937 15.55390625 -14.42171875 14.8578125 -14.9609375 14.140625 C-16 12 -16 12 -15.91015625 9.96484375 C-14.72757793 7.4118957 -13.2178374 6.10926409 -11.0625 4.3125 C-10.35222656 3.71050781 -9.64195313 3.10851562 -8.91015625 2.48828125 C-5.78514218 0.05345434 -3.90763538 -0.10283251 0 0 Z " fill="#EFF3F8" transform="translate(45,16)"/>
<path d="M0 0 C1.65 0 3.3 0 5 0 C6.32 3.63 7.64 7.26 9 11 C9.639375 9.55625 10.27875 8.1125 10.9375 6.625 C11.92496004 4.39525153 12.90942 2.18116 14 0 C15.65 0 17.3 0 19 0 C19 6.27 19 12.54 19 19 C17.68 19 16.36 19 15 19 C14.67 17.02 14.34 15.04 14 13 C13.01 14.98 12.02 16.96 11 19 C9.68 19 8.36 19 7 19 C6.34 17.35 5.68 15.7 5 14 C4.67 15.65 4.34 17.3 4 19 C2.68 19 1.36 19 0 19 C0 12.73 0 6.46 0 0 Z " fill="#0A4F9E" transform="translate(100,182)"/>
<path d="M0 0 C4.07038097 6.10557145 2.69291694 15.92046576 1.3125 23.00390625 C-1.90275352 36.06587369 -7.54715735 45.51363663 -17 55 C-17.54140625 55.56460938 -18.0828125 56.12921875 -18.640625 56.7109375 C-30.38380407 67.9203357 -46.82344136 71.35154393 -62.4921875 71.30078125 C-66.283353 70.97570358 -69.38881047 70.15909025 -73 69 C-73 68.67 -73 68.34 -73 68 C-72.39639648 68.01571045 -71.79279297 68.0314209 -71.17089844 68.04760742 C-51.36510484 68.49499334 -34.77872548 66.7917888 -19.0625 53.25 C-3.46322964 38.13247181 -0.91884135 20.62557023 0 0 Z " fill="#EEEFF4" transform="translate(144,75)"/>
<path d="M0 0 C6.48217977 -0.16005382 11.90219785 -0.25353558 18 2 C19 3 19 3 19.125 5.375 C19 8 19 8 18 11 C17.96125079 12.66621616 17.9549714 14.33394172 18 16 C16.35 16 14.7 16 13 16 C13 14.68 13 13.36 13 12 C10.36 12 7.72 12 5 12 C5 12.99 5 13.98 5 15 C3.35 15 1.7 15 0 15 C0 10.05 0 5.1 0 0 Z " fill="#F2F5FA" transform="translate(82,3)"/>
<path d="M0 0 C1.76171875 2.30078125 1.76171875 2.30078125 3.6875 5.3125 C4.33074219 6.29863281 4.97398437 7.28476563 5.63671875 8.30078125 C6.08660156 9.19152344 6.53648437 10.08226562 7 11 C6 14 6 14 3.75 15.8125 C1 17 1 17 -1.5 16.375 C-4.04231135 14.97672876 -6.54334829 13.54418108 -9 12 C-8.319375 12.9075 -7.63875 13.815 -6.9375 14.75 C-5 18 -5 18 -5.0625 20.3125 C-6 22 -6 22 -9 23 C-11.64 19.04 -14.28 15.08 -17 11 C-13 7 -13 7 -10.6875 6 C-6.6365087 6 -4.37465218 7.81640153 -1 10 C-1.680625 9.071875 -2.36125 8.14375 -3.0625 7.1875 C-3.701875 6.135625 -4.34125 5.08375 -5 4 C-4.67 3.01 -4.34 2.02 -4 1 C-2 0 -2 0 0 0 Z " fill="#F4F7FA" transform="translate(133,136)"/>
<path d="M0 0 C5.22031415 0.04979632 8.06822112 1.56822112 11.75 5.25 C12.35685659 9.33248976 12.36822172 13.07243483 10.4375 16.75 C7.25520813 19.57870389 4.11669261 19.36019638 0.0625 19.3125 C-0.93136719 19.30347656 -1.92523437 19.29445312 -2.94921875 19.28515625 C-4.08810547 19.26775391 -4.08810547 19.26775391 -5.25 19.25 C-5.27683987 16.27077407 -5.29676037 13.29178705 -5.3125 10.3125 C-5.32087891 9.46236328 -5.32925781 8.61222656 -5.33789062 7.73632812 C-5.34111328 6.92744141 -5.34433594 6.11855469 -5.34765625 5.28515625 C-5.35289307 4.5362915 -5.35812988 3.78742676 -5.36352539 3.01586914 C-5.13931289 -0.47172014 -3.00478238 0.05969766 0 0 Z M-0.25 4.25 C-0.25 7.88 -0.25 11.51 -0.25 15.25 C4.39985706 15.67874646 4.39985706 15.67874646 6.625 14.125 C8.03536955 12.17525516 8.03536955 12.17525516 7.5625 9.1875 C6.98351637 6.15484132 6.98351637 6.15484132 4.75 4.25 C3.1 4.25 1.45 4.25 -0.25 4.25 Z " fill="#0A4E9F" transform="translate(33.25,181.75)"/>
<path d="M0 0 C1.65 0 3.3 0 5 0 C6.80078125 2.1875 6.80078125 2.1875 8.3125 5 C8.82425781 5.928125 9.33601563 6.85625 9.86328125 7.8125 C10.23839844 8.534375 10.61351562 9.25625 11 10 C11.33 6.7 11.66 3.4 12 0 C13.32 0 14.64 0 16 0 C16 6.27 16 12.54 16 19 C14.35 19 12.7 19 11 19 C9.19921875 17.03125 9.19921875 17.03125 7.6875 14.5 C6.91986328 13.24703125 6.91986328 13.24703125 6.13671875 11.96875 C5.76160156 11.3190625 5.38648438 10.669375 5 10 C4.67 12.97 4.34 15.94 4 19 C2.68 19 1.36 19 0 19 C0 12.73 0 6.46 0 0 Z " fill="#0A4E9F" transform="translate(8,182)"/>
<path d="M0 0 C1.65 0 3.3 0 5 0 C6.80078125 1.96875 6.80078125 1.96875 8.3125 4.5 C8.82425781 5.3353125 9.33601562 6.170625 9.86328125 7.03125 C10.23839844 7.6809375 10.61351562 8.330625 11 9 C11.33 6.36 11.66 3.72 12 1 C13.32 0.67 14.64 0.34 16 0 C16 6.27 16 12.54 16 19 C11 18 11 18 9.19921875 15.93359375 C8.70035156 15.10988281 8.20148438 14.28617188 7.6875 13.4375 C7.17574219 12.61121094 6.66398438 11.78492188 6.13671875 10.93359375 C5.76160156 10.29550781 5.38648438 9.65742188 5 9 C4.67 12.3 4.34 15.6 4 19 C2.68 19 1.36 19 0 19 C0 12.73 0 6.46 0 0 Z " fill="#0A4F9E" transform="translate(138,182)"/>
<path d="M0 0 C2.85746217 1.26998319 4.48137263 2.2838003 6.3125 4.8125 C7.25846855 7.82239992 7.44072275 9.85198036 7 13 C4.53817167 17.28834613 4.53817167 17.28834613 2 19 C-1.14451426 19.7505893 -3.84700549 19.68543359 -7 19 C-9.87029869 17.20606332 -11.49131638 16.01736724 -13 13 C-13.12339449 8.43440376 -12.83352347 5.00513124 -9.875 1.4375 C-6.25075063 -0.37462469 -4.01026576 -0.50128322 0 0 Z M-8 6.1875 C-9.24362763 8.94017021 -9.24362763 8.94017021 -8.5 11.6875 C-7.13364098 14.14746228 -7.13364098 14.14746228 -4.625 15.5 C-1.98648932 16.27762278 -1.98648932 16.27762278 0.25 14.875 C2.21263832 12.77217323 2.91546638 11.87414304 3 9 C2.07976712 6.16071467 2.07976712 6.16071467 0 4 C-3.89249936 3.18906263 -5.27796223 3.21027119 -8 6.1875 Z " fill="#0A4F9F" transform="translate(59,182)"/>
<path d="M0 0 C2.54296875 1.99609375 2.54296875 1.99609375 5.1875 4.4375 C6.06792969 5.24058594 6.94835937 6.04367188 7.85546875 6.87109375 C10 9 10 9 11 11 C5.69235173 11.97772468 0.36891879 12.50130596 -5 13 C-5.33 14.32 -5.66 15.64 -6 17 C-7.32 17 -8.64 17 -10 17 C-9.77245411 14.37124622 -9.51918261 11.74953041 -9.25 9.125 C-9.188125 8.37863281 -9.12625 7.63226563 -9.0625 6.86328125 C-8.47251003 1.405874 -8.47251003 1.405874 -6.171875 -0.5703125 C-3.5555191 -1.08793687 -2.45608917 -1.06846817 0 0 Z " fill="#E3EBF4" transform="translate(62,8)"/>
<path d="M0 0 C2.95887459 -0.08069658 5.9155659 -0.14034665 8.875 -0.1875 C9.71675781 -0.21263672 10.55851563 -0.23777344 11.42578125 -0.26367188 C12.23144531 -0.27333984 13.03710938 -0.28300781 13.8671875 -0.29296875 C14.98262939 -0.31653442 14.98262939 -0.31653442 16.12060547 -0.34057617 C17.05090576 -0.17199097 17.05090576 -0.17199097 18 0 C20 3 20 3 19.84765625 4.796875 C18.68488258 7.81901486 17.0981599 10.47216889 15.4375 13.25 C14.79683594 14.32765625 14.15617188 15.4053125 13.49609375 16.515625 C13.00238281 17.33546875 12.50867188 18.1553125 12 19 C10.5 17.6484375 10.5 17.6484375 9 16 C9 14.33333333 9 12.66666667 9 11 C7.86250805 8.21491684 7.86250805 8.21491684 6 6 C5.319375 5.835 4.63875 5.67 3.9375 5.5 C3.298125 5.335 2.65875 5.17 2 5 C0.87890625 2.46875 0.87890625 2.46875 0 0 Z " fill="#E6EDF5" transform="translate(136,39)"/>
<path d="M0 0 C6.75 -0.125 6.75 -0.125 9 1 C9.66 0.67 10.32 0.34 11 0 C12.99960012 -0.039992 15.00047242 -0.04346799 17 0 C17 0.99 17 1.98 17 3 C15.35 3 13.7 3 12 3 C12.66 4.32 13.32 5.64 14 7 C14.33 6.01 14.66 5.02 15 4 C16.9375 2.9375 16.9375 2.9375 19 2 C19.66 1.34 20.32 0.68 21 0 C24.125 -0.125 24.125 -0.125 27 0 C27 0.66 27 1.32 27 2 C25.02 2.66 23.04 3.32 21 4 C21 5.32 21 6.64 21 8 C22.98 8 24.96 8 27 8 C27 8.66 27 9.32 27 10 C18 10 9 10 0 10 C0 6.7 0 3.4 0 0 Z M7 5 C8 7 8 7 8 7 Z M8 7 C9 9 9 9 9 9 Z " fill="#0A4DA0" transform="translate(64,206)"/>
<path d="M0 0 C4.87362847 0.45336079 7.39042389 1.7089159 11 5 C10.67 6.65 10.34 8.3 10 10 C8.68 9.34 7.36 8.68 6 8 C6 7.01 6 6.02 6 5 C5.01 5 4.02 5 3 5 C2.67 5.66 2.34 6.32 2 7 C2.61875 7.28875 3.2375 7.5775 3.875 7.875 C6 9 6 9 8 11 C7.67028521 14.29714793 7.3773161 15.6226839 5 18 C1.06526633 17.68096754 -1.89210964 16.41724806 -5 14 C-5.8125 11.3125 -5.8125 11.3125 -6 9 C-4.68 8.67 -3.36 8.34 -2 8 C-2.226875 7.4225 -2.45375 6.845 -2.6875 6.25 C-3 4 -3 4 -1.5625 1.75 C-1.046875 1.1725 -0.53125 0.595 0 0 Z " fill="#DDE6F1" transform="translate(44,140)"/>
<path d="M0 0 C10.04465319 4.09226611 15.90633068 16.0975627 19.95703125 25.45703125 C20.98594204 27.96572386 22.00000362 30.47964712 23 33 C23.33 33 23.66 33 24 33 C24.55289254 51.19229114 24.65502246 66.40104712 14 82 C12.515 82.99 12.515 82.99 11 84 C12.39789796 80.31463264 14.08016541 76.91114102 15.9375 73.4375 C21.65444091 61.96168462 22.4302627 51.55729653 22 39 C21.01 39.495 21.01 39.495 20 40 C19.78085938 38.88882813 19.56171875 37.77765625 19.3359375 36.6328125 C16.58996518 23.44888164 12.27979321 14.9636703 2.85546875 5.12890625 C1 3 1 3 0 0 Z " fill="#7194C3" transform="translate(123,39)"/>
<path d="M0 0 C1.41681634 0.31182069 2.83344651 0.62448737 4.25 0.9375 C5.43335937 1.19853516 5.43335937 1.19853516 6.640625 1.46484375 C8.76878703 1.947556 10.88532842 2.46163178 13 3 C12.67 4.32 12.34 5.64 12 7 C7.545 6.01 7.545 6.01 3 5 C3 5.66 3 6.32 3 7 C5.31 7.66 7.62 8.32 10 9 C10 9.99 10 10.98 10 12 C7.36 11.34 4.72 10.68 2 10 C4.17424117 12.50037734 5.73045798 13.43628586 9 14 C9 15.32 9 16.64 9 18 C7.58194169 17.71517632 6.16559621 17.42181856 4.75 17.125 C3.96109375 16.96257812 3.1721875 16.80015625 2.359375 16.6328125 C0.03168856 16.00849925 -1.89031952 15.15161458 -4 14 C-3.53328373 8.58609132 -2.75702189 4.79482068 0 0 Z " fill="#ECF1F7" transform="translate(59,148)"/>
<path d="M0 0 C1.51400391 0.01740234 1.51400391 0.01740234 3.05859375 0.03515625 C4.07050781 0.04417969 5.08242187 0.05320313 6.125 0.0625 C7.29869141 0.07990234 7.29869141 0.07990234 8.49609375 0.09765625 C8.49609375 1.41765625 8.49609375 2.73765625 8.49609375 4.09765625 C5.85609375 4.09765625 3.21609375 4.09765625 0.49609375 4.09765625 C0.82609375 5.08765625 1.15609375 6.07765625 1.49609375 7.09765625 C4.46609375 7.59265625 4.46609375 7.59265625 7.49609375 8.09765625 C7.49609375 9.08765625 7.49609375 10.07765625 7.49609375 11.09765625 C5.51609375 11.42765625 3.53609375 11.75765625 1.49609375 12.09765625 C1.16609375 13.08765625 0.83609375 14.07765625 0.49609375 15.09765625 C3.13609375 15.09765625 5.77609375 15.09765625 8.49609375 15.09765625 C8.49609375 16.41765625 8.49609375 17.73765625 8.49609375 19.09765625 C4.53609375 19.09765625 0.57609375 19.09765625 -3.50390625 19.09765625 C-3.53074612 16.11843032 -3.55066662 13.1394433 -3.56640625 10.16015625 C-3.57478516 9.31001953 -3.58316406 8.45988281 -3.59179688 7.58398438 C-3.59501953 6.77509766 -3.59824219 5.96621094 -3.6015625 5.1328125 C-3.60679932 4.38394775 -3.61203613 3.63508301 -3.61743164 2.86352539 C-3.4339598 0.00965048 -2.85703563 0.11142885 0 0 Z " fill="#0A4F9E" transform="translate(126.50390625,181.90234375)"/>
<path d="M0 0 C0 1.32 0 2.64 0 4 C-0.969375 4.28875 -1.93875 4.5775 -2.9375 4.875 C-6.10664203 5.64214682 -6.10664203 5.64214682 -7 8 C-4.36 7.67 -1.72 7.34 1 7 C1 7.66 1 8.32 1 9 C-1.64738916 10.4606285 -2.89448334 11 -6 11 C-5.34 11.66 -4.68 12.32 -4 13 C-1.69 12.34 0.62 11.68 3 11 C3.33 12.32 3.66 13.64 4 15 C-2.435 16.98 -2.435 16.98 -9 19 C-13 8.5 -13 8.5 -13 4 C-11.2097939 3.32942113 -9.41778511 2.6636531 -7.625 2 C-6.62726563 1.62875 -5.62953125 1.2575 -4.6015625 0.875 C-2 0 -2 0 0 0 Z " fill="#EEF3F8" transform="translate(114,147)"/>
<path d="M0 0 C3.63 0 7.26 0 11 0 C11.33 1.32 11.66 2.64 12 4 C9.36 4 6.72 4 4 4 C4 5.32 4 6.64 4 8 C5.98 8 7.96 8 10 8 C10 8.99 10 9.98 10 11 C8.02 11 6.04 11 4 11 C4 12.32 4 13.64 4 15 C6.64 15 9.28 15 12 15 C12 16.32 12 17.64 12 19 C8.04 19 4.08 19 0 19 C0 12.73 0 6.46 0 0 Z " fill="#0A4E9F" transform="translate(85,182)"/>
<path d="M0 0 C0.66 0.33 1.32 0.66 2 1 C2 2.32 2 3.64 2 5 C-0.01822917 4.90234375 -2.03645833 4.8046875 -4.0546875 4.70703125 C-4.69664063 4.80371094 -5.33859375 4.90039062 -6 5 C-8.31543207 7.76988076 -8.31543207 7.76988076 -7.6875 10.625 C-7.2258486 12.93501965 -7.2258486 12.93501965 -6 14 C-4.65252916 14.23075082 -3.29622435 14.41153063 -1.9375 14.5625 C-0.638125 14.706875 0.66125 14.85125 2 15 C1.67 16.32 1.34 17.64 1 19 C-3.7373412 19.46444522 -6.94841058 19.66529126 -11.0625 17.0625 C-13.64425257 12.98166529 -13.97792124 9.7134042 -13 5 C-9.23974272 -0.01367637 -6.06052841 -0.21644744 0 0 Z " fill="#0A4E9F" transform="translate(80,182)"/>
<path d="M0 0 C1.98 0 3.96 0 6 0 C5.67 0.66 5.34 1.32 5 2 C4.01 2 3.02 2 2 2 C2 2.66 2 3.32 2 4 C2.99 4 3.98 4 5 4 C5 4.66 5 5.32 5 6 C4.01 6 3.02 6 2 6 C2 6.99 2 7.98 2 9 C3.32 8.67 4.64 8.34 6 8 C6.66 5.36 7.32 2.72 8 0 C11 1 11 1 12.1875 3.0625 C12.455625 3.701875 12.72375 4.34125 13 5 C13.66 3.35 14.32 1.7 15 0 C15.66 0 16.32 0 17 0 C17.33 0.66 17.66 1.32 18 2 C18.33 1.34 18.66 0.68 19 0 C20.98 0 22.96 0 25 0 C25 0.66 25 1.32 25 2 C23.68 2 22.36 2 21 2 C21 2.66 21 3.32 21 4 C22.32 4 23.64 4 25 4 C25 4.66 25 5.32 25 6 C23.68 6 22.36 6 21 6 C21 6.99 21 7.98 21 9 C22.32 9.33 23.64 9.66 25 10 C23.72125 10.061875 22.4425 10.12375 21.125 10.1875 C20.40570313 10.22230469 19.68640625 10.25710937 18.9453125 10.29296875 C18.30335937 10.19628906 17.66140625 10.09960938 17 10 C16.34 9.01 15.68 8.02 15 7 C14.67 7.99 14.34 8.98 14 10 C13.01 10 12.02 10 11 10 C10.67 9.01 10.34 8.02 10 7 C9.01 8.485 9.01 8.485 8 10 C6.0546875 10.29296875 6.0546875 10.29296875 3.875 10.1875 C1.956875 10.0946875 1.956875 10.0946875 0 10 C0 6.7 0 3.4 0 0 Z " fill="#0A4F9E" transform="translate(92,206)"/>
<path d="M0 0 C4.95 0 9.9 0 15 0 C15 1.98 15 3.96 15 6 C14.01 6 13.02 6 12 6 C12 6.66 12 7.32 12 8 C12.99 8 13.98 8 15 8 C15 8.66 15 9.32 15 10 C10.05 10 5.1 10 0 10 C0 6.7 0 3.4 0 0 Z M7 4 C8 6 8 6 8 6 Z M3 6 C4 8 4 8 4 8 Z " fill="#0A4F9F" transform="translate(48,206)"/>
<path d="M0 0 C1.32 0.33 2.64 0.66 4 1 C3.34 3.31 2.68 5.62 2 8 C3.11375 8.433125 3.11375 8.433125 4.25 8.875 C6.56739797 9.82302644 8.77917115 10.84845911 11 12 C10.34 13.32 9.68 14.64 9 16 C4.87248551 15.39301257 1.6678852 13.96189209 -2 12 C-2.66 13.65 -3.32 15.3 -4 17 C-4.99 16.34 -5.98 15.68 -7 15 C-5.45454854 9.52067211 -2.84456788 4.88570819 0 0 Z " fill="#EFF3F8" transform="translate(18,36)"/>
<path d="M0 0 C4.62 0 9.24 0 14 0 C14 1.32 14 2.64 14 4 C12.35 4 10.7 4 9 4 C9 8.95 9 13.9 9 19 C7.68 19 6.36 19 5 19 C5 14.05 5 9.1 5 4 C3.35 4 1.7 4 0 4 C0 2.68 0 1.36 0 0 Z " fill="#0A4F9F" transform="translate(157,182)"/>
<path d="M0 0 C0.33 0 0.66 0 1 0 C1.06058594 0.90363281 1.12117187 1.80726562 1.18359375 2.73828125 C1.26738281 3.91777344 1.35117188 5.09726563 1.4375 6.3125 C1.51871094 7.48425781 1.59992188 8.65601562 1.68359375 9.86328125 C1.8867371 13.02590958 1.8867371 13.02590958 3 16 C1.28913838 26.60734206 -2.45993787 39.02731135 -10 47 C-10.99 47 -11.98 47 -13 47 C-11.73717804 44.44804729 -10.43846843 41.91672471 -9.125 39.390625 C-8.41644556 38.01053016 -7.70811875 36.63031844 -7 35.25 C-6.64421875 34.57195312 -6.2884375 33.89390625 -5.921875 33.1953125 C-1.8553805 25.21405836 -0.70307265 17.89897055 -0.375 9 C-0.33632812 8.12988281 -0.29765625 7.25976562 -0.2578125 6.36328125 C-0.16459113 4.24249514 -0.08125864 2.12127815 0 0 Z " fill="#EAF0F6" transform="translate(147,78)"/>
<path d="M0 0 C-0.33 0.99 -0.66 1.98 -1 3 C-3.5546875 4.140625 -3.5546875 4.140625 -6.875 5.25 C-13.56924917 7.66880605 -19.17431664 10.94887349 -25 15 C-25.66 14.34 -26.32 13.68 -27 13 C-25.59148053 11.67876058 -24.17284259 10.36830231 -22.75 9.0625 C-21.96109375 8.33160156 -21.1721875 7.60070312 -20.359375 6.84765625 C-18.04380116 5.03430124 -16.75579133 4.67675407 -14 4 C-13.67 3.01 -13.34 2.02 -13 1 C-8.55312147 -1.6950779 -4.89773721 -0.83012495 0 0 Z " fill="#1B5AA5" transform="translate(70,20)"/>
<path d="M0 0 C0.66 0 1.32 0 2 0 C0.98417446 3.20375747 -0.11217175 6.24771262 -1.5 9.3125 C-4.97887342 17.8647305 -5.2625249 25.89593651 -5.125 35.0625 C-5.11146484 36.79016602 -5.11146484 36.79016602 -5.09765625 38.55273438 C-5.07428714 41.36871193 -5.04152565 44.18424158 -5 47 C-5.66 46.67 -6.32 46.34 -7 46 C-10.51625567 31.34132375 -8.41489608 15.33628264 -1.45703125 2.0546875 C-0.97621094 1.37664063 -0.49539062 0.69859375 0 0 Z " fill="#F0F2F7" transform="translate(33,54)"/>
<path d="M0 0 C4 2 4 2 6 5 C6.33 3.35 6.66 1.7 7 0 C10.3 0 13.6 0 17 0 C17 0.66 17 1.32 17 2 C16.01 2 15.02 2 14 2 C14 4.64 14 7.28 14 10 C13.34 10 12.68 10 12 10 C12 7.36 12 4.72 12 2 C11.01 2 10.02 2 9 2 C9 4.64 9 7.28 9 10 C8.01 10 7.02 10 6 10 C4.3125 8 4.3125 8 3 6 C2.67 7.32 2.34 8.64 2 10 C1.34 10 0.68 10 0 10 C0 6.7 0 3.4 0 0 Z " fill="#0A4E9D" transform="translate(118,206)"/>
<path d="M0 0 C6.0546875 -0.1953125 6.0546875 -0.1953125 8 0 C10 2 10 2 10.25 5 C10 8 10 8 8 10 C5.31160615 10.26991906 2.70858064 10.08737357 0 10 C0 6.7 0 3.4 0 0 Z M3 3 C3.33 4.65 3.66 6.3 4 8 C4.99 7.34 5.98 6.68 7 6 C6.67 5.01 6.34 4.02 6 3 C5.01 3 4.02 3 3 3 Z " fill="#0A4EA0" transform="translate(21,206)"/>
<path d="M0 0 C1.32 0 2.64 0 4 0 C4 6.27 4 12.54 4 19 C2.68 19 1.36 19 0 19 C0 12.73 0 6.46 0 0 Z " fill="#0A4DA0" transform="translate(0,182)"/>
<path d="M0 0 C0.54269531 0.40992187 1.08539062 0.81984375 1.64453125 1.2421875 C2.35996094 1.78101562 3.07539063 2.31984375 3.8125 2.875 C4.52019531 3.40867188 5.22789063 3.94234375 5.95703125 4.4921875 C7.60456297 5.70814781 9.29624211 6.86416141 11 8 C10.67 9.65 10.34 11.3 10 13 C5.01987239 11.49087042 1.75740058 8.44338151 -2 5 C-1.125 1.125 -1.125 1.125 0 0 Z " fill="#EFF3F8" transform="translate(24,30)"/>
<path d="M0 0 C3.40312738 1.05875074 6.01353231 2.00902154 9 4 C8.67 5.65 8.34 7.3 8 9 C3.82412255 10.39195915 1.86525224 8.82323219 -2 7 C-1.125 1.125 -1.125 1.125 0 0 Z " fill="#1C5BA5" transform="translate(110,11)"/>
<path d="M0 0 C2.64 1.98 5.28 3.96 8 6 C7.34 7.32 6.68 8.64 6 10 C5.01 10.33 4.02 10.66 3 11 C1.17578125 10.00390625 1.17578125 10.00390625 -0.6875 8.5625 C-1.31011719 8.08941406 -1.93273437 7.61632812 -2.57421875 7.12890625 C-3.04472656 6.75636719 -3.51523438 6.38382813 -4 6 C-2.68 4.02 -1.36 2.04 0 0 Z " fill="#1A59A4" transform="translate(131,22)"/>
<path d="M0 0 C0.99 0 1.98 0 3 0 C3.165 0.7425 3.33 1.485 3.5 2.25 C5.69103132 6.26689076 8.80574949 7.44657388 13 9 C16.31583451 9.7783777 16.31583451 9.7783777 19 10 C18.01 10.33 17.02 10.66 16 11 C15.67 11.66 15.34 12.32 15 13 C14.13117188 12.65066406 13.26234375 12.30132812 12.3671875 11.94140625 C11.21476562 11.48636719 10.06234375 11.03132813 8.875 10.5625 C7.73804687 10.11003906 6.60109375 9.65757813 5.4296875 9.19140625 C2.25793259 8.08960073 -0.67942748 7.43904226 -4 7 C-3.67 6.01 -3.34 5.02 -3 4 C-2.01 4 -1.02 4 0 4 C0 2.68 0 1.36 0 0 Z " fill="#2C67AC" transform="translate(100,15)"/>
<path d="M0 0 C7.15015988 0.2985453 12.69645565 1.61968448 19 5 C19.91910156 5.49242187 20.83820313 5.98484375 21.78515625 6.4921875 C27.0295501 9.45737221 27.0295501 9.45737221 29 11 C29 11.99 29 12.98 29 14 C28.33097656 13.56429687 27.66195312 13.12859375 26.97265625 12.6796875 C18.37182864 7.34601991 9.5907315 4.10221528 0 1 C0 0.67 0 0.34 0 0 Z " fill="#ECEBF1" transform="translate(94,26)"/>
<path d="M0 0 C2.31 0 4.62 0 7 0 C7 1.98 7 3.96 7 6 C6.01 6.33 5.02 6.66 4 7 C4.99 7.33 5.98 7.66 7 8 C7 8.66 7 9.32 7 10 C4.69 10 2.38 10 0 10 C0 6.7 0 3.4 0 0 Z " fill="#0A4DA0" transform="translate(9,206)"/>
<path d="M0 0 C2.31 0 4.62 0 7 0 C7 1.98 7 3.96 7 6 C5.68 6 4.36 6 3 6 C3 6.66 3 7.32 3 8 C4.32 8 5.64 8 7 8 C7 8.66 7 9.32 7 10 C4.69 10 2.38 10 0 10 C0 6.7 0 3.4 0 0 Z " fill="#0B4F9F" transform="translate(32,206)"/>
<path d="M0 0 C0 0.33 0 0.66 0 1 C-2.64 1 -5.28 1 -8 1 C-8.66 3.97 -9.32 6.94 -10 10 C-12.46278801 7.53721199 -12.99771255 5.29323018 -14 2 C-16.31 1.67 -18.62 1.34 -21 1 C-21 0.67 -21 0.34 -21 0 C-13.97381022 -1.5056121 -7.10547081 -0.64057643 0 0 Z " fill="#2360A8" transform="translate(96,151)"/>
<path d="M0 0 C0.96679688 -0.020625 1.93359375 -0.04125 2.9296875 -0.0625 C3.85265625 -0.06765625 4.775625 -0.0728125 5.7265625 -0.078125 C6.57041504 -0.0874707 7.41426758 -0.09681641 8.28369141 -0.10644531 C9.31888916 0.06999512 9.31888916 0.06999512 10.375 0.25 C11.035 1.24 11.695 2.23 12.375 3.25 C11.09625 3.23839844 9.8175 3.22679687 8.5 3.21484375 C6.79166814 3.20545731 5.08333468 3.19635803 3.375 3.1875 C2.53582031 3.17912109 1.69664063 3.17074219 0.83203125 3.16210938 C-4.41819339 3.14175967 -9.42955662 3.48631793 -14.625 4.25 C-14.625 3.26 -14.625 2.27 -14.625 1.25 C-9.7890155 -0.14207168 -4.99733348 0.02686738 0 0 Z " fill="#E4DCE5" transform="translate(84.625,24.75)"/>
<path d="M0 0 C0.99 0.33 1.98 0.66 3 1 C-0.17596137 4.57196652 -3.70923138 6.70504894 -7.9375 8.8125 C-8.54529297 9.13669922 -9.15308594 9.46089844 -9.77929688 9.79492188 C-12.72867734 11.28074785 -14.62039317 12.0388177 -17.94140625 11.69921875 C-18.62074219 11.46847656 -19.30007812 11.23773438 -20 11 C-17.54587045 9.76676907 -15.08401702 8.55152796 -12.6171875 7.34375 C-11.36974583 6.72925971 -10.12235113 6.11467406 -8.875 5.5 C-8.24207031 5.19191406 -7.60914062 4.88382813 -6.95703125 4.56640625 C-4.28082577 3.24250842 -2.12639084 2.12639084 0 0 Z " fill="#E2E4EE" transform="translate(121,131)"/>
<path d="M0 0 C0.99 0 1.98 0 3 0 C3 3.3 3 6.6 3 10 C2.01 10 1.02 10 0 10 C0 8.68 0 7.36 0 6 C-0.66 6 -1.32 6 -2 6 C-2 7.32 -2 8.64 -2 10 C-2.99 10 -3.98 10 -5 10 C-5 8.02 -5 6.04 -5 4 C-3.35 4 -1.7 4 0 4 C0 2.68 0 1.36 0 0 Z " fill="#0B4E9F" transform="translate(5,206)"/>
<path d="M0 0 C0.66 0.33 1.32 0.66 2 1 C1.175 1.61875 0.35 2.2375 -0.5 2.875 C-1.7375 3.926875 -1.7375 3.926875 -3 5 C-3 5.66 -3 6.32 -3 7 C-1.35 6.34 0.3 5.68 2 5 C0.63016497 8.16115776 0.0109362 8.9927092 -3 11 C-3.99 11 -4.98 11 -6 11 C-8 8 -8 8 -7.875 6 C-6.73834412 3.40192943 -5.39211516 2.47748289 -3 1 C-2.01 0.67 -1.02 0.34 0 0 Z " fill="#1B5AA5" transform="translate(43,20)"/>
<path d="M0 0 C0.66 0 1.32 0 2 0 C4.45153075 4.73898266 4.23154206 9.12062333 4.125 14.3125 C4.11597656 15.14845703 4.10695312 15.98441406 4.09765625 16.84570312 C4.07420989 18.89725969 4.03834266 20.94866777 4 23 C3.34 22.67 2.68 22.34 2 22 C1.58935547 19.86694336 1.58935547 19.86694336 1.3671875 17.08984375 C1.28339844 16.10048828 1.19960937 15.11113281 1.11328125 14.09179688 C1.03464844 13.05087891 0.95601562 12.00996094 0.875 10.9375 C0.78863281 9.89271484 0.70226562 8.84792969 0.61328125 7.77148438 C0.40041023 5.18155359 0.19638621 2.5912245 0 0 Z " fill="#EDF2F8" transform="translate(146,69)"/>
<path d="M0 0 C3.3 0 6.6 0 10 0 C10 2.31 10 4.62 10 7 C6.66666667 7 3.33333333 7 0 7 C0 4.69 0 2.38 0 0 Z M6 1 C5.67 2.32 5.34 3.64 5 5 C5.99 5.33 6.98 5.66 8 6 C8.33 5.01 8.66 4.02 9 3 C8.67 2.34 8.34 1.68 8 1 C7.34 1 6.68 1 6 1 Z " fill="#0B4E9C" transform="translate(146,209)"/>
<path d="M0 0 C2.45898655 -0.08076963 4.91533742 -0.14037143 7.375 -0.1875 C8.07367188 -0.21263672 8.77234375 -0.23777344 9.4921875 -0.26367188 C11.5234375 -0.29296875 11.5234375 -0.29296875 15 0 C15.66 0.99 16.32 1.98 17 3 C10.4 3 3.8 3 -3 3 C-2.01 2.67 -1.02 2.34 0 2 C0 1.34 0 0.68 0 0 Z " fill="#D4E0EE" transform="translate(79,147)"/>
<path d="M0 0 C2.75006608 -0.0270203 5.49986546 -0.04684883 8.25 -0.0625 C9.02730469 -0.07087891 9.80460937 -0.07925781 10.60546875 -0.08789062 C11.73662109 -0.09272461 11.73662109 -0.09272461 12.890625 -0.09765625 C13.92751465 -0.10551147 13.92751465 -0.10551147 14.98535156 -0.11352539 C17.09973898 0.00562029 18.96641515 0.42381763 21 1 C21 1.66 21 2.32 21 3 C13.74 2.67 6.48 2.34 -1 2 C-0.67 1.34 -0.34 0.68 0 0 Z " fill="#F6F9FB" transform="translate(79,21)"/>
<path d="M0 0 C0 0.66 0 1.32 0 2 C-1.65 2.33 -3.3 2.66 -5 3 C-4.67 4.65 -4.34 6.3 -4 8 C-3.01 8.33 -2.02 8.66 -1 9 C-1 7.35 -1 5.7 -1 4 C-0.34 4.33 0.32 4.66 1 5 C1 6.65 1 8.3 1 10 C-2.375 10.125 -2.375 10.125 -6 10 C-8 8 -8 8 -8.3125 5 C-8.209375 4.01 -8.10625 3.02 -8 2 C-4.77208445 -0.1519437 -3.71599191 -0.20086443 0 0 Z " fill="#0A4BA3" transform="translate(144,206)"/>
<path d="M0 0 C1.70189768 3.28505832 3.14432232 6.64617346 4.5625 10.0625 C4.99691406 11.10535156 5.43132813 12.14820312 5.87890625 13.22265625 C6.64679605 15.12498952 7.35126842 17.05380526 8 19 C7.01 19 6.02 19 5 19 C3.95991798 16.96807164 2.9436389 14.92394802 1.9375 12.875 C1.36902344 11.73804687 0.80054687 10.60109375 0.21484375 9.4296875 C-1.10487196 5.7039306 -1.0024611 3.76925372 0 0 Z " fill="#E5DDE6" transform="translate(28,98)"/>
<path d="M0 0 C1.99954746 -0.04254356 4.00041636 -0.04080783 6 0 C7 1 7 1 7.0625 3.5625 C7.041875 4.366875 7.02125 5.17125 7 6 C5.35 6.33 3.7 6.66 2 7 C2 7.99 2 8.98 2 10 C1.34 10 0.68 10 0 10 C0 6.7 0 3.4 0 0 Z M3 1 C2.67 2.32 2.34 3.64 2 5 C2.99 5 3.98 5 5 5 C4.67 3.68 4.34 2.36 4 1 C3.67 1 3.34 1 3 1 Z " fill="#0A4DA0" transform="translate(164,209)"/>
<path d="M0 0 C2.06473354 2.06473354 2.60506767 3.24566146 3.5625 5.9375 C3.81128906 6.62714844 4.06007812 7.31679687 4.31640625 8.02734375 C4.88940471 9.68085359 5.44660846 11.33982537 6 13 C4 16 4 16 2 17 C1.4678559 14.91952703 0.94968214 12.83547707 0.4375 10.75 C0.14746094 9.58984375 -0.14257812 8.4296875 -0.44140625 7.234375 C-0.95179964 4.27909017 -1.02996165 2.75565899 0 0 Z " fill="#D3D1E0" transform="translate(141,62)"/>
<path d="M0 0 C0.99 0 1.98 0 3 0 C3 2.31 3 4.62 3 7 C4.32 7.33 5.64 7.66 7 8 C7 8.66 7 9.32 7 10 C4.69 10 2.38 10 0 10 C0 6.7 0 3.4 0 0 Z " fill="#0A4E9F" transform="translate(40,206)"/>
<path d="M0 0 C-3.46670907 4.03131967 -7.96297018 4.87545381 -13 6 C-16.625 6.1875 -16.625 6.1875 -19 6 C-18 4 -18 4 -14.47265625 2.67578125 C-13.00512953 2.21326375 -11.53492161 1.7591897 -10.0625 1.3125 C-9.32064453 1.07466797 -8.57878906 0.83683594 -7.81445312 0.59179688 C-2.25431548 -1.12715774 -2.25431548 -1.12715774 0 0 Z " fill="#F7F9FB" transform="translate(112,143)"/>
<path d="M0 0 C2.125 0.375 2.125 0.375 4 1 C4.625 2.875 4.625 2.875 5 5 C4.34 5.66 3.68 6.32 3 7 C0.875 6.625 0.875 6.625 -1 6 C-1.625 4.125 -1.625 4.125 -2 2 C-1.34 1.34 -0.68 0.68 0 0 Z " fill="#E8EEF6" transform="translate(10,72)"/>
<path d="M0 0 C0.33 0.99 0.66 1.98 1 3 C-3.29 3.66 -7.58 4.32 -12 5 C-12 4.34 -12 3.68 -12 3 C-12.66 2.67 -13.32 2.34 -14 2 C-9.15758367 0.66416101 -5.06562383 -0.25328119 0 0 Z " fill="#D6E1EF" transform="translate(79,21)"/>
<path d="M0 0 C0.65226562 0.13277344 1.30453125 0.26554688 1.9765625 0.40234375 C6.6408287 1.34482822 11.29868454 2.25768703 16 3 C16 3.66 16 4.32 16 5 C10.06997733 5.37851209 5.52760359 4.10575375 0 2 C0 1.34 0 0.68 0 0 Z " fill="#F5F8FB" transform="translate(63,144)"/>
<path d="M0 0 C0.33 0 0.66 0 1 0 C1.06058594 0.90363281 1.12117187 1.80726562 1.18359375 2.73828125 C1.26738281 3.91777344 1.35117188 5.09726563 1.4375 6.3125 C1.55931641 8.07013672 1.55931641 8.07013672 1.68359375 9.86328125 C1.8867371 13.02590958 1.8867371 13.02590958 3 16 C2.72230092 18.3406065 2.39460023 20.67624308 2 23 C1.01 22.67 0.02 22.34 -1 22 C-0.67 14.74 -0.34 7.48 0 0 Z " fill="#C3D4E7" transform="translate(147,78)"/>
<path d="M0 0 C1.67542976 0.28604898 3.34385343 0.61781233 5 1 C4.67 2.65 4.34 4.3 4 6 C2.0625 6.5625 2.0625 6.5625 0 7 C-1 6 -1 6 -1.125 3.5 C-1 1 -1 1 0 0 Z " fill="#E9EFF6" transform="translate(158,73)"/>
<path d="M0 0 C-2.45620851 1.17133058 -4.91474917 2.33721722 -7.375 3.5 C-8.07367188 3.83386719 -8.77234375 4.16773438 -9.4921875 4.51171875 C-14.7734375 7 -14.7734375 7 -17 7 C-17 6.34 -17 5.68 -17 5 C-15.3970947 4.18501438 -13.79262722 3.37310073 -12.1875 2.5625 C-11.29417969 2.11003906 -10.40085937 1.65757813 -9.48046875 1.19140625 C-5.81076082 -0.57120937 -3.8776807 -1.20341815 0 0 Z " fill="#EDEFF5" transform="translate(71,28)"/>
<path d="M0 0 C2.64 0 5.28 0 8 0 C8.33 1.32 8.66 2.64 9 4 C6.03 4 3.06 4 0 4 C0 2.68 0 1.36 0 0 Z " fill="#467AB6" transform="translate(87,7)"/>
<path d="M0 0 C0.66 0 1.32 0 2 0 C2.33 1.65 2.66 3.3 3 5 C3.33 3.35 3.66 1.7 4 0 C4.66 0 5.32 0 6 0 C6 2.31 6 4.62 6 7 C4.02 7 2.04 7 0 7 C0 4.69 0 2.38 0 0 Z " fill="#0A4F9E" transform="translate(157,209)"/>
<path d="M0 0 C0.99 0 1.98 0 3 0 C3 3.3 3 6.6 3 10 C2.01 10 1.02 10 0 10 C0 6.7 0 3.4 0 0 Z " fill="#0A4F9E" transform="translate(17,206)"/>
<path d="M0 0 C3.65786455 3.36128094 6.1784694 6.34497737 8 11 C7.67 11.99 7.34 12.98 7 14 C6.66226563 13.45730469 6.32453125 12.91460937 5.9765625 12.35546875 C5.53054687 11.64003906 5.08453125 10.92460938 4.625 10.1875 C4.18414062 9.47980469 3.74328125 8.77210937 3.2890625 8.04296875 C2.21811524 6.34567961 1.11323761 4.66985642 0 3 C0 2.01 0 1.02 0 0 Z " fill="#EFEDF3" transform="translate(133,49)"/>
<path d="M0 0 C-2.06756277 2.7972908 -3.14440371 3.02692273 -6.6875 3.6875 C-7.780625 3.790625 -8.87375 3.89375 -10 4 C-9.67 3.01 -9.34 2.02 -9 1 C-3.79245283 -1.26415094 -3.79245283 -1.26415094 0 0 Z " fill="#2260A8" transform="translate(112,146)"/>
<path d="M0 0 C0.33 0.66 0.66 1.32 1 2 C1.66 2.33 2.32 2.66 3 3 C2.67 5.97 2.34 8.94 2 12 C1.01 11.34 0.02 10.68 -1 10 C-0.67 6.7 -0.34 3.4 0 0 Z " fill="#CFDCEC" transform="translate(22,69)"/>
<path d="M0 0 C-1.55603771 3.81936528 -3.95604931 6.26044438 -7 9 C-7.66 9 -8.32 9 -9 9 C-7.45665977 5.21180126 -4.44676575 0 0 0 Z " fill="#EDF0F6" transform="translate(132,123)"/>
<path d="M0 0 C1.08892712 2.83121051 0.96109941 4.16532751 0.25 7.1875 C-0.36875 8.5796875 -0.36875 8.5796875 -1 10 C-1.99 10.33 -2.98 10.66 -4 11 C-3.5247412 9.35303396 -3.04468109 7.70745272 -2.5625 6.0625 C-2.29566406 5.14597656 -2.02882812 4.22945313 -1.75390625 3.28515625 C-1 1 -1 1 0 0 Z " fill="#F3F6FA" transform="translate(147,99)"/>
<path d="M0 0 C0.66 0.33 1.32 0.66 2 1 C0.89626579 1.79226949 -0.20800652 2.58378935 -1.3125 3.375 C-1.92738281 3.81585937 -2.54226562 4.25671875 -3.17578125 4.7109375 C-4.7652392 5.83410907 -6.38062171 6.92041447 -8 8 C-7.62118922 5.25362183 -7.22167713 4.19950942 -5.125 2.3125 C-3 1 -3 1 0 0 Z " fill="#2763AA" transform="translate(43,20)"/>
<path d="M0 0 C1.32 1.32 2.64 2.64 4 4 C4.33 3.01 4.66 2.02 5 1 C5.33 2.32 5.66 3.64 6 5 C4.02 5 2.04 5 0 5 C-0.5625 3.0625 -0.5625 3.0625 -1 1 C-0.67 0.67 -0.34 0.34 0 0 Z " fill="#0946A9" transform="translate(150,211)"/>
<path d="M0 0 C0.33 0.66 0.66 1.32 1 2 C-1.64 2.33 -4.28 2.66 -7 3 C-6.67 2.01 -6.34 1.02 -6 0 C-3 -1 -3 -1 0 0 Z " fill="#306AAD" transform="translate(114,152)"/>
<path d="M0 0 C-0.33 0.99 -0.66 1.98 -1 3 C-3.875 3.625 -3.875 3.625 -7 4 C-7.66 3.34 -8.32 2.68 -9 2 C-3.375 0 -3.375 0 0 0 Z " fill="#E2D9E3" transform="translate(110,139)"/>
<path d="M0 0 C0.66 0 1.32 0 2 0 C3.4783226 2.95664519 3.06032783 5.74229737 3 9 C2.34 9 1.68 9 1 9 C0.67 6.03 0.34 3.06 0 0 Z " fill="#F8FAFC" transform="translate(146,69)"/>
<path d="M0 0 C2.97 0.495 2.97 0.495 6 1 C6 1.99 6 2.98 6 4 C4.35 3.67 2.7 3.34 1 3 C0.67 2.01 0.34 1.02 0 0 Z " fill="#2B66AB" transform="translate(61,158)"/>
<path d="M0 0 C2.31 0.33 4.62 0.66 7 1 C7 1.99 7 2.98 7 4 C4.69 3.34 2.38 2.68 0 2 C0 1.34 0 0.68 0 0 Z " fill="#316AAE" transform="translate(62,153)"/>
<path d="M0 0 C0.33 0.66 0.66 1.32 1 2 C0.06421005 4.35981813 -0.93347808 6.69631264 -2 9 C-2.97110486 5.97878489 -3.13617383 3.99536737 -2 1 C-1.34 0.67 -0.68 0.34 0 0 Z " fill="#E5E4ED" transform="translate(28,70)"/>
<path d="M0 0 C0.99 0.33 1.98 0.66 3 1 C3.33 1.99 3.66 2.98 4 4 C4.66 4.66 5.32 5.32 6 6 C2.48283697 6 1.62878252 5.17554415 -1 3 C-0.67 2.01 -0.34 1.02 0 0 Z " fill="#336BAE" transform="translate(47,144)"/>
<path d="M0 0 C0.99 0 1.98 0 3 0 C3 0.99 3 1.98 3 3 C2.01 3 1.02 3 0 3 C0 2.01 0 1.02 0 0 Z " fill="#0B4E9F" transform="translate(0,206)"/>
</svg>
